#!OML:ASF F:\Work\Patient Classification 1\justin\Session 1\justin.ASF
:FULLY-SPECIFIED
:DEGREES
6415
root 0.663802 17.164 1.68077 11.4235 23.2956 6.48224
lowerback 17.8547 -6.57956 -2.23511
upperback -0.31585 -8.3906 7.44701
thorax -8.81639 -3.74622 11.5916
lowerneck -22.6508 -4.22546 -15.7602
upperneck 10.9162 -2.1911 7.91617
head 7.27877 -0.985571 4.89911
rclavicle 1.10524e-013 -9.85972e-014
rhumerus -16.4068 10.4408 -77.7224
rradius 136.175
rwrist -12.3128
rhand -16.5225 31.447
rfingers 7.12502
rthumb 9.69606 1.69022
lclavicle 1.10524e-013 -9.85972e-014
lhumerus 32.4456 -9.75044 66.1805
lradius 87.9364
lwrist 22.3148
lhand -13.5165 11.3657
lfingers 7.12502
lthumb 12.5953 40.966
rfemur -44.1475 3.18745 2.55243
rtibia 42.7412
rfoot -3.66912 0.50802
rtoes -21.5367
lfemur -2.42368 14.9563 -16.4177
ltibia 32.8361
lfoot -22.8698 0.940697
ltoes -21.4267
6416
root 0.669834 17.1696 1.66181 11.1187 24.0058 6.52834
lowerback 17.5077 -6.52078 -2.14436
upperback -0.329494 -8.30573 7.39239
thorax -8.67748 -3.72058 11.4012
lowerneck -22.0223 -4.42269 -16.0788
upperneck 10.7087 -2.49696 8.11769
head 7.15492 -1.132 4.97606
rclavicle -2.62396e-014 1.36764e-013
rhumerus -16.4173 10.0809 -77.5192
rradius 136.466
rwrist -12.0468
rhand -16.9513 31.1085
rfingers 7.12502
rthumb 9.28229 1.33285
lclavicle -2.62396e-014 1.36764e-013
lhumerus 30.3613 -11.0393 67.9476
lradius 91.6118
lwrist 22.9498
lhand -12.2429 12.4318
lfingers 7.12502
lthumb 13.8229 41.9526
rfemur -43.4019 2.97376 2.47875
rtibia 42.564
rfoot -3.80904 0.159188
rtoes -23.5809
lfemur -2.24742 14.935 -16.3645
ltibia 32.8868
lfoot -22.9202 1.0295
ltoes -21.8132
6417
root 0.663352 17.1758 1.67804 10.4573 25.2796 6.75379
lowerback 17.1851 -6.62226 -2.34408
upperback -0.0710039 -8.50048 7.32277
thorax -8.15477 -3.85107 11.3819
lowerneck -21.8889 -4.72109 -16.3144
upperneck 10.6924 -2.88247 8.302
head 7.18364 -1.31162 5.02748
rclavicle -4.77083e-015 -9.54166e-015
rhumerus -16.0093 9.51862 -77.3488
rradius 137.053
rwrist -12.9838
rhand -15.8433 29.3845
rfingers 7.12502
rthumb 10.3513 -0.340724
lclavicle -4.77083e-015 -9.54166e-015
lhumerus 28.371 -12.1745 69.7206
lradius 95.0605
lwrist 23.2848
lhand -11.4132 13.146
lfingers 7.12502
lthumb 14.6224 42.6105
rfemur -41.8195 2.55243 2.41421
rtibia 42.3861
rfoot -4.16895 -0.375213
rtoes -25.3765
lfemur -1.46421 14.7544 -15.9732
ltibia 33.114
lfoot -23.2785 0.331586
ltoes -21.7251
6418
root 0.718524 17.1581 1.58437 11.0317 24.9665 6.50351
lowerback 16.1266 -6.33131 -1.3771
upperback -0.302187 -7.95863 7.13968
thorax -8.09067 -3.63062 10.3751
lowerneck -21.4473 -4.94748 -16.5022
upperneck 10.5701 -3.24176 8.51059
head 7.12592 -1.4776 5.08186
rclavicle -4.92986e-014 -3.18055e-014
rhumerus -15.7889 9.16879 -77.2662
rradius 136.993
rwrist -12.8853
rhand -16.5904 30.1101
rfingers 7.12502
rthumb 9.63057 0.350211
lclavicle -4.92986e-014 -3.18055e-014
lhumerus 26.2976 -13.2592 71.522
lradius 98.1355
lwrist 23.4689
lhand -11.0602 12.9385
lfingers 7.12502
lthumb 14.9625 42.378
rfemur -42.9734 1.50669 2.45878
rtibia 42.251
rfoot -3.59603 0.836512
rtoes -22.6916
lfemur -2.66535 15.0125 -16.744
ltibia 33.2761
lfoot -23.3989 1.6647
ltoes -22.6337
6419
root 0.722141 17.1523 1.54717 10.8413 25.5004 6.42559
lowerback 15.7006 -6.21167 -1.23169
upperback -0.335268 -7.79428 7.02611
thorax -7.95448 -3.56708 10.0695
lowerneck -20.7124 -5.1028 -16.8086
upperneck 10.3655 -3.55808 8.93949
head 6.9968 -1.61292 5.23755
rclavicle 4.85035e-014 1.74931e-014
rhumerus -15.5385 8.87759 -77.1665
rradius 137.061
rwrist -13.0008
rhand -17.0893 30.3664
rfingers 7.12502
rthumb 9.14919 0.584907
lclavicle 4.85035e-014 1.74931e-014
lhumerus 24.0813 -14.3383 73.2808
lradius 101.126
lwrist 23.5178
lhand -10.9985 13.103
lfingers 7.12502
lthumb 15.022 42.5381
rfemur -42.7242 1.23234 2.45664
rtibia 42.2346
rfoot -3.67053 0.712724
rtoes -22.6471
lfemur -2.80457 15.1235 -16.7236
ltibia 33.4236
lfoot -23.3843 2.02721
ltoes -23.1523
6420
root 0.682675 17.149 1.56599 9.81843 26.9302 6.7282
lowerback 16.0133 -6.30314 -1.99842
upperback -0.0627439 -8.06964 6.92459
thorax -7.68999 -3.69457 10.4559
lowerneck -20.1818 -5.22816 -16.7919
upperneck 10.3076 -3.84615 9.06534
head 6.93355 -1.74926 5.24255
rclavicle -3.02153e-014 3.18055e-015
rhumerus -15.2932 8.70426 -77.15
rradius 137.39
rwrist -13.1156
rhand -17.3368 29.5006
rfingers 7.12502
rthumb 8.91031 -0.291221
lclavicle -3.02153e-014 3.18055e-015
lhumerus 21.8134 -15.287 74.9766
lradius 103.955
lwrist 23.713
lhand -11.0332 13.3051
lfingers 7.12502
lthumb 14.9885 42.7426
rfemur -40.793 1.36741 2.30981
rtibia 42.2875
rfoot -4.23811 -0.49431
rtoes -26.4801
lfemur -1.57527 15.0398 -16.0624
ltibia 33.6441
lfoot -23.7663 1.21842
ltoes -22.8044
